<svg
	width="256"
	height="256"
	viewBox="0 0 256 256"
	fill="none"
	xmlns="http://www.w3.org/2000/svg"
>
	<path
		d="M163.118 123.802L68.3071 138.7L154.398 100.874C155.213 100.516 155.949 100.001 156.564 99.3574C157.178 98.7138 157.659 97.9549 157.979 97.1244C158.299 96.2939 158.451 95.4083 158.427 94.5187C158.403 93.629 158.203 92.753 157.838 91.9411L147.123 68.0384C145.661 64.8259 142.991 62.3189 139.693 61.0603C136.396 59.8018 132.735 59.893 129.504 61.3143L8.0058 114.691C6.38691 115.394 4.9246 116.413 3.70446 117.689C2.48433 118.964 1.5309 120.47 0.899995 122.118C0.261322 123.749 -0.0430702 125.492 0.00490455 127.242C0.0528793 128.993 0.452242 130.716 1.17926 132.309L10.9578 154.159C10.9761 154.275 10.9958 154.4 11.0154 154.525L22.5242 227.77C23.0791 231.302 25.0144 234.469 27.9043 236.574C30.7942 238.679 34.402 239.549 37.9339 238.995L171.107 218.069C174.639 217.515 177.805 215.579 179.91 212.689C182.015 209.799 182.886 206.192 182.331 202.66L170.823 129.415C170.545 127.649 169.577 126.065 168.132 125.013C166.688 123.96 164.884 123.525 163.118 123.802ZM134.905 73.6511L142.785 91.236L124.743 99.1882L99.2137 89.3488L134.905 73.6511ZM81.6986 97.022L107.228 106.861L77.7565 119.808L52.2301 109.985L81.6986 97.022ZM21.4472 144.545L13.5656 126.951L34.7068 117.659L60.2384 127.515L21.4472 144.545ZM169.014 204.752L35.8414 225.677L25.3789 159.091L158.552 138.166L169.014 204.752Z"
		fill="white"
	/>
	<path
		d="M187.026 69.4022C189.677 65.694 193.094 62.5981 197.044 60.3237C205.733 55.4193 215.465 56.0536 224.451 62.108C229.133 65.2623 233.215 65.6866 237.383 63.4964C239.654 62.23 241.633 60.5001 243.192 58.4189C244.196 56.9401 245.747 55.921 247.503 55.5855C249.259 55.2501 251.076 55.626 252.555 56.6305C254.034 57.6349 255.053 59.1857 255.388 60.9416C255.724 62.6975 255.348 64.5147 254.343 65.9935C248.289 74.9793 233.325 84.3419 216.918 73.2877C212.237 70.1334 208.154 69.7091 203.986 71.8993C201.715 73.1657 199.736 74.8956 198.178 76.9768C197.68 77.709 197.044 78.3361 196.304 78.8222C195.564 79.3084 194.736 79.6441 193.867 79.8102C192.997 79.9762 192.103 79.9694 191.237 79.7901C190.37 79.6109 189.547 79.2626 188.815 78.7652C188.082 78.2679 187.455 77.6312 186.969 76.8915C186.483 76.1518 186.147 75.3236 185.981 74.4541C185.815 73.5847 185.822 72.6911 186.001 71.8242C186.181 70.9574 186.529 70.1344 187.026 69.4022ZM185.322 35.7437L196.621 18.974C197.62 17.4915 199.167 16.4665 200.921 16.1245C202.676 15.7825 204.494 16.1516 205.977 17.1505C207.46 18.1494 208.485 19.6963 208.827 21.4509C209.169 23.2055 208.799 25.0242 207.801 26.5067L196.502 43.2763C195.503 44.7589 193.956 45.7839 192.201 46.1259C190.447 46.4678 188.628 46.0988 187.145 45.0999C185.663 44.101 184.638 42.5541 184.296 40.7995C183.954 39.0448 184.323 37.2262 185.322 35.7437ZM217.59 141.138C217.759 142.007 217.755 142.901 217.579 143.768C217.403 144.636 217.057 145.46 216.562 146.194C216.067 146.928 215.432 147.557 214.694 148.046C213.956 148.535 213.129 148.873 212.26 149.042C211.391 149.211 210.497 149.207 209.63 149.031C208.762 148.854 207.938 148.509 207.204 148.014C206.47 147.519 205.841 146.884 205.352 146.146C204.863 145.408 204.525 144.58 204.356 143.712L200.709 124.999C200.367 123.243 200.736 121.424 201.735 119.94C202.735 118.457 204.283 117.432 206.038 117.089C207.794 116.747 209.613 117.116 211.097 118.116C212.58 119.115 213.606 120.663 213.948 122.419L217.59 141.138ZM241.12 113.56L220.584 107.851C218.861 107.372 217.399 106.229 216.52 104.672C215.641 103.115 215.416 101.273 215.895 99.5509C216.373 97.8284 217.517 96.3667 219.073 95.4874C220.63 94.608 222.472 94.383 224.195 94.8619L244.731 100.571C246.453 101.05 247.915 102.193 248.794 103.75C249.673 105.306 249.898 107.149 249.42 108.871C248.941 110.593 247.797 112.055 246.241 112.934C244.684 113.814 242.842 114.039 241.12 113.56Z"
		fill="white"
	/>
</svg>
