<svg xmlns="http://www.w3.org/2000/svg" width="116" height="34" fill="none">
	<path
		fill="#fff"
		d="m5.186 14.393 6.437 2.48-8.885 3.903-1.59-3.546a.97.97 0 0 1 .504-1.284l3.534-1.553Zm15.796-5.877a.987.987 0 0 0-1.3-.49l-7.524 3.305 6.437 2.48 3.977-1.748-1.59-3.547Z"
		opacity=".2"
	/>
	<path
		fill="#fff"
		d="m24.262 16.382-14.066 2.21L22.97 12.98a1 1 0 0 0 .51-1.325l-1.59-3.546a1.992 1.992 0 0 0-2.613-.998L1.25 15.03a1.968 1.968 0 0 0-1.054 1.102 1.94 1.94 0 0 0 .041 1.512l1.451 3.241.008.055 1.708 10.866a2 2 0 0 0 2.286 1.666l19.758-3.105a2 2 0 0 0 1.665-2.286l-1.707-10.867a1 1 0 0 0-1.143-.832Zm-4.185-7.44 1.169 2.608-2.677 1.18-3.787-1.46 5.295-2.329Zm-7.894 3.467 3.788 1.46-4.373 1.92-3.787-1.457 4.372-1.923Zm-8.939 7.05-1.17-2.61 3.137-1.379L9 16.933l-5.755 2.526Zm21.893 8.933L5.38 31.495l-1.553-9.879 19.758-3.104 1.552 9.878ZM27.81 8.31c.393-.55.9-1.009 1.486-1.346 1.289-.728 2.733-.634 4.066.265.694.468 1.3.53 1.919.206a2.75 2.75 0 0 0 .861-.754 1 1 0 1 1 1.655 1.124c-.898 1.333-3.118 2.722-5.553 1.082-.694-.468-1.3-.53-1.918-.206a2.75 2.75 0 0 0-.862.754.999.999 0 1 1-1.654-1.124Zm-.253-4.993L29.233.83a1 1 0 1 1 1.659 1.118l-1.677 2.488a1 1 0 0 1-1.658-1.118Zm4.787 15.637a.999.999 0 1 1-1.963.381l-.541-2.776a1 1 0 1 1 1.964-.383l.54 2.778Zm3.49-4.092-3.046-.847a1 1 0 0 1 .536-1.927l3.047.847a1 1 0 1 1-.536 1.927ZM52.345 9.614h-2.887a.795.795 0 0 0-.187-.46 1.052 1.052 0 0 0-.426-.296 1.446 1.446 0 0 0-.569-.108c-.269 0-.5.05-.693.148-.193.098-.288.238-.284.42a.472.472 0 0 0 .165.358c.117.11.343.195.676.256l1.773.318c.894.163 1.559.438 1.994.824.44.382.661.896.665 1.54-.004.62-.19 1.16-.557 1.619-.364.454-.862.807-1.494 1.057-.629.246-1.347.37-2.154.37-1.333 0-2.377-.274-3.13-.82-.75-.544-1.169-1.264-1.256-2.158h3.114c.041.276.178.49.409.642.235.148.53.222.886.222.288 0 .525-.05.71-.148.19-.099.286-.239.29-.42-.004-.167-.087-.3-.25-.399-.159-.098-.409-.178-.75-.238l-1.545-.273c-.89-.155-1.557-.45-2-.886-.444-.436-.663-.996-.66-1.682-.003-.606.156-1.12.478-1.54.326-.424.79-.746 1.392-.966.606-.223 1.324-.335 2.153-.335 1.262 0 2.256.261 2.983.784.731.523 1.116 1.246 1.154 2.17ZM59.433 11.682v-4.91h3.136V15.5h-2.977v-1.66H59.5a2.48 2.48 0 0 1-.994 1.308c-.474.31-1.036.466-1.688.466-.61 0-1.144-.14-1.602-.42a2.883 2.883 0 0 1-1.063-1.16c-.25-.492-.377-1.057-.38-1.693V6.773h3.136v4.909c.004.432.114.77.33 1.017.22.246.526.37.92.37.261 0 .487-.056.676-.166.193-.113.341-.272.443-.477.106-.208.157-.456.154-.744ZM64.164 15.5V6.773h3.046v1.659h.09c.16-.614.412-1.063.756-1.347a1.875 1.875 0 0 1 1.222-.426c.136 0 .27.011.403.034.137.02.267.048.392.085v2.677a2.808 2.808 0 0 0-.573-.12 5.16 5.16 0 0 0-.586-.04c-.307 0-.583.07-.83.21-.242.137-.433.33-.573.58-.14.246-.21.536-.21.87V15.5h-3.137ZM71.102 18.773v-12h3.113v1.522h.069c.113-.295.28-.566.5-.812.22-.25.492-.449.818-.597a2.67 2.67 0 0 1 1.136-.227c.576 0 1.123.154 1.642.46.523.307.947.79 1.273 1.45.33.658.494 1.514.494 2.567 0 1.008-.157 1.843-.471 2.506-.311.663-.728 1.157-1.25 1.483a3.153 3.153 0 0 1-1.71.489 2.86 2.86 0 0 1-1.097-.2 2.532 2.532 0 0 1-.818-.55 2.55 2.55 0 0 1-.517-.796h-.046v4.705h-3.136Zm3.068-7.637c0 .425.055.792.165 1.103.113.306.272.545.477.715.208.167.456.25.744.25s.532-.08.733-.244c.205-.166.36-.403.466-.71.11-.31.165-.682.165-1.114 0-.431-.055-.8-.165-1.108-.106-.31-.261-.547-.466-.71a1.11 1.11 0 0 0-.733-.25c-.288 0-.536.084-.744.25-.205.163-.364.4-.477.71-.11.307-.165.676-.165 1.108ZM81.461 15.5V6.773h3.046v1.659h.09c.16-.614.411-1.063.756-1.347a1.875 1.875 0 0 1 1.222-.426c.136 0 .27.011.403.034.137.02.267.048.392.085v2.677a2.808 2.808 0 0 0-.574-.12 5.157 5.157 0 0 0-.585-.04c-.307 0-.583.07-.83.21a1.48 1.48 0 0 0-.573.58c-.14.246-.21.536-.21.87V15.5H81.46ZM88.399 15.5V6.773h3.136V15.5h-3.136Zm1.568-9.636a1.55 1.55 0 0 1-1.091-.42 1.329 1.329 0 0 1-.455-1.012c0-.394.152-.731.455-1.012a1.55 1.55 0 0 1 1.09-.42c.429 0 .793.14 1.092.42.303.28.454.618.454 1.012s-.151.73-.454 1.011c-.3.28-.663.42-1.091.42ZM101.11 9.614h-2.886a.795.795 0 0 0-.188-.46 1.052 1.052 0 0 0-.426-.296 1.446 1.446 0 0 0-.568-.108c-.269 0-.5.05-.693.148-.193.098-.288.238-.284.42a.471.471 0 0 0 .165.358c.117.11.342.195.676.256l1.772.318c.894.163 1.559.438 1.995.824.439.382.661.896.665 1.54a2.541 2.541 0 0 1-.557 1.619c-.364.454-.862.807-1.495 1.057-.628.246-1.346.37-2.153.37-1.333 0-2.377-.274-3.13-.82-.75-.544-1.17-1.264-1.256-2.158h3.113c.042.276.178.49.41.642.234.148.53.222.886.222.288 0 .524-.05.71-.148.19-.099.286-.239.29-.42-.004-.167-.087-.3-.25-.399-.16-.098-.41-.178-.75-.238l-1.546-.273c-.89-.155-1.557-.45-2-.886-.443-.436-.663-.996-.659-1.682-.004-.606.156-1.12.477-1.54.326-.424.79-.746 1.392-.966.607-.223 1.324-.335 2.154-.335 1.261 0 2.256.261 2.983.784.731.523 1.115 1.246 1.153 2.17ZM106.721 15.66c-.932 0-1.735-.179-2.409-.535a3.735 3.735 0 0 1-1.551-1.546c-.36-.674-.54-1.48-.54-2.42 0-.901.182-1.69.545-2.364a3.9 3.9 0 0 1 1.54-1.573c.663-.375 1.445-.563 2.347-.563.659 0 1.256.102 1.79.307.534.204.99.502 1.369.892.379.386.67.856.875 1.409.204.553.307 1.176.307 1.87v.727h-7.796v-1.728h4.909a1.197 1.197 0 0 0-.193-.659 1.23 1.23 0 0 0-.494-.449 1.457 1.457 0 0 0-.699-.164c-.254 0-.487.055-.699.164a1.322 1.322 0 0 0-.511.444c-.125.189-.191.41-.199.664V12c0 .28.059.53.176.75.118.22.286.392.506.517.219.125.485.188.795.188.216 0 .413-.03.591-.091.182-.061.337-.148.466-.262.129-.117.224-.257.284-.42h2.864a3.271 3.271 0 0 1-.699 1.58c-.368.442-.854.787-1.46 1.034-.603.242-1.307.363-2.114.363ZM113.978 15.682c-.439 0-.816-.154-1.131-.46a1.521 1.521 0 0 1-.46-1.131c-.004-.432.15-.801.46-1.108.315-.307.692-.46 1.131-.46.417 0 .784.153 1.102.46.322.307.485.676.489 1.108a1.527 1.527 0 0 1-.233.807 1.72 1.72 0 0 1-.579.574c-.239.14-.499.21-.779.21ZM44.367 30.5v-8.727h2.978v1.659h.09c.182-.546.493-.977.932-1.296.44-.318.963-.477 1.569-.477.613 0 1.142.163 1.585.489.443.322.71.75.8 1.284h.092a2.22 2.22 0 0 1 .943-1.284c.481-.326 1.045-.489 1.693-.489.837 0 1.515.269 2.034.807.523.538.784 1.254.784 2.148V30.5h-3.136v-5.09c0-.384-.097-.683-.29-.899-.193-.22-.452-.33-.778-.33-.322 0-.578.11-.767.33-.186.216-.279.515-.279.898V30.5h-3v-5.09c0-.384-.096-.683-.29-.899-.193-.22-.452-.33-.778-.33-.216 0-.401.05-.557.148a.984.984 0 0 0-.363.427 1.56 1.56 0 0 0-.125.653V30.5h-3.137ZM63.619 30.66c-.947 0-1.758-.188-2.432-.563a3.868 3.868 0 0 1-1.551-1.58c-.36-.678-.54-1.464-.54-2.358 0-.894.18-1.678.54-2.352a3.823 3.823 0 0 1 1.551-1.58c.674-.378 1.485-.568 2.432-.568.947 0 1.757.19 2.432.568a3.823 3.823 0 0 1 1.55 1.58c.36.674.54 1.458.54 2.352 0 .894-.18 1.68-.54 2.358-.36.674-.876 1.2-1.55 1.58-.675.375-1.485.562-2.432.562Zm.023-2.32a.98.98 0 0 0 .687-.266c.193-.178.343-.432.449-.762.106-.329.159-.721.159-1.176 0-.458-.053-.85-.16-1.176-.105-.33-.255-.583-.448-.761a.98.98 0 0 0-.687-.267c-.28 0-.521.089-.722.267-.2.178-.354.432-.46.761-.106.326-.16.718-.16 1.176 0 .455.054.847.16 1.177.106.329.26.583.46.76.2.179.441.268.721.268ZM77.944 21.773 75.012 30.5h-3.636l-2.932-8.727h3.296l1.409 5.773h.09l1.41-5.773h3.295ZM78.836 30.5v-8.727h3.136V30.5h-3.136Zm1.568-9.636a1.55 1.55 0 0 1-1.09-.42 1.329 1.329 0 0 1-.455-1.012c0-.394.151-.731.454-1.011A1.55 1.55 0 0 1 80.404 18c.428 0 .792.14 1.091.42.303.28.455.618.455 1.012s-.152.73-.455 1.011c-.299.28-.663.42-1.09.42ZM87.752 30.66c-.931 0-1.735-.179-2.409-.535a3.741 3.741 0 0 1-1.55-1.546c-.36-.674-.54-1.48-.54-2.42 0-.901.181-1.69.545-2.363a3.898 3.898 0 0 1 1.54-1.574c.662-.375 1.445-.563 2.346-.563.66 0 1.256.102 1.79.307.534.204.99.502 1.37.892.378.386.67.856.874 1.409.205.553.307 1.176.307 1.87v.727H84.23v-1.728h4.909a1.203 1.203 0 0 0-.194-.659 1.23 1.23 0 0 0-.494-.449 1.455 1.455 0 0 0-.699-.164c-.253 0-.486.055-.699.164a1.32 1.32 0 0 0-.51.444 1.25 1.25 0 0 0-.2.664V27c0 .28.059.53.176.75.118.22.286.392.506.517.22.125.485.188.795.188.216 0 .413-.03.591-.091a1.33 1.33 0 0 0 .466-.262c.13-.117.224-.257.284-.42h2.864a3.263 3.263 0 0 1-.699 1.58c-.367.442-.854.787-1.46 1.034-.602.242-1.307.363-2.114.363Z"
	/>
</svg>
